<svg width="16" height="18" viewBox="0 0 16 18" fill="none" xmlns="http://www.w3.org/2000/svg">
<path d="M3.42857 5.34375V5.625H1.71429V5.34375C1.71429 2.39414 4.14643 0 7.14286 0H8.85714C11.8536 0 14.2857 2.39414 14.2857 5.34375V5.625H12.5714V5.34375C12.5714 3.32578 10.9071 1.6875 8.85714 1.6875H7.14286C5.09286 1.6875 3.42857 3.32578 3.42857 5.34375ZM0 7.875C0 7.25273 0.510714 6.75 1.14286 6.75H14.8571C15.4893 6.75 16 7.25273 16 7.875C16 8.49727 15.4893 9 14.8571 9H14.675L13.875 16.4883C13.7821 17.3461 13.0464 18 12.1714 18H3.82857C2.95 18 2.21429 17.3496 2.125 16.4883L1.325 9H1.14286C0.510714 9 0 8.49727 0 7.875Z" fill="#374151"/>
</svg>
