<svg width="23" height="18" viewBox="0 0 23 18" fill="none" xmlns="http://www.w3.org/2000/svg">
<path d="M3.45 7.875V9V14.625C3.45 15.2473 3.96391 15.75 4.6 15.75H5.75C6.38609 15.75 6.9 15.2473 6.9 14.625V11.5242C7.25578 11.7562 7.64031 11.9461 8.05 12.0902V12.941C8.05 13.2504 8.30875 13.5035 8.625 13.5035C8.94125 13.5035 9.2 13.2504 9.2 12.941V12.3469C9.39047 12.368 9.58094 12.3785 9.775 12.3785C9.96906 12.3785 10.1595 12.368 10.35 12.3469V12.941C10.35 13.2504 10.6088 13.5035 10.925 13.5035C11.2413 13.5035 11.5 13.2504 11.5 12.941V12.0902C11.9097 11.9496 12.2942 11.7598 12.65 11.5242V14.625C12.65 15.2473 13.1639 15.75 13.8 15.75H14.95C15.5861 15.75 16.1 15.2473 16.1 14.625V9L17.25 10.125V11.8652C17.25 12.1992 17.3506 12.5227 17.5411 12.8004L19.0469 15.0117C19.3631 15.4723 19.8914 15.75 20.4592 15.75C21.2678 15.75 21.965 15.191 22.1231 14.4141L22.8527 10.8422C22.9461 10.3852 22.8419 9.91055 22.5652 9.53086L22.425 9.3375V6.46875C22.425 6.00117 22.0405 5.625 21.5625 5.625C21.0845 5.625 20.7 6.00117 20.7 6.46875V6.975L18.7989 4.36992C17.825 3.04102 16.2581 2.25 14.587 2.25H9.775H9.2H6.9H5.175C2.79234 2.25 0.8625 4.13789 0.8625 6.46875V8.36719C0.337813 8.78203 0 9.41484 0 10.125V10.7438C0 11.025 0.23 11.25 0.5175 11.25C1.66031 11.25 2.5875 10.343 2.5875 9.225V9V7.875V6.46875C2.5875 5.61445 3.02234 4.85859 3.68359 4.39805C3.53266 4.77773 3.45 5.19258 3.45 5.625V7.875ZM20.125 11.8125C20.125 11.6633 20.1856 11.5202 20.2934 11.4148C20.4012 11.3093 20.5475 11.25 20.7 11.25C20.8525 11.25 20.9988 11.3093 21.1066 11.4148C21.2144 11.5202 21.275 11.6633 21.275 11.8125C21.275 11.9617 21.2144 12.1048 21.1066 12.2102C20.9988 12.3157 20.8525 12.375 20.7 12.375C20.5475 12.375 20.4012 12.3157 20.2934 12.2102C20.1856 12.1048 20.125 11.9617 20.125 11.8125ZM5.98719 5.85703C5.83625 5.70938 5.75 5.50547 5.75 5.29453C5.75 4.85508 6.11297 4.5 6.56219 4.5H12.9842C13.4334 4.5 13.7964 4.85508 13.7964 5.29453C13.7964 5.50547 13.7102 5.70938 13.5592 5.85703L12.7183 6.67969C11.9384 7.44609 10.8783 7.875 9.775 7.875C8.67172 7.875 7.61156 7.44609 6.83172 6.6832L5.99078 5.86055L5.98719 5.85703Z" fill="#374151"/>
</svg>
